PathFileType	4	(X/Y/Z)	c:/Users/goper/Files/vsCode/490R/osim_files/C03/C03_Slow_02.trc
DataRate	CameraRate	NumFrames	NumMarkers	Units                	OrigDataRate	OrigDataStartFrame	OrigNumFrames
250.00	250.00	10	36	mm	250.0	3025	3456
                Frame#	Time	LPSIS			LASIS			LTH1			LTH2			LTH3			LTH4			LLFE			LMFE			LSH1			LSH2			LSH3			LSH4			LLMAL			LMMAL			LCAL			LMTP5			LTOE			LMTP1			RPSIS			RASIS			RTH1			RTH2			RTH3			RTH4			RLFE			RMFE			RSH1			RSH2			RSH3			RSH4			RLMAL			RMMAL			RCAL			RMTP1			RTOE			RMTP5		
		X1	Y1	Z1	X2	Y2	Z2	X3	Y3	Z3	X4	Y4	Z4	X5	Y5	Z5	X6	Y6	Z6	X7	Y7	Z7	X8	Y8	Z8	X9	Y9	Z9	X10	Y10	Z10	X11	Y11	Z11	X12	Y12	Z12	X13	Y13	Z13	X14	Y14	Z14	X15	Y15	Z15	X16	Y16	Z16	X17	Y17	Z17	X18	Y18	Z18	X19	Y19	Z19	X20	Y20	Z20	X21	Y21	Z21	X22	Y22	Z22	X23	Y23	Z23	X24	Y24	Z24	X25	Y25	Z25	X26	Y26	Z26	X27	Y27	Z27	X28	Y28	Z28	X29	Y29	Z29	X30	Y30	Z30	X31	Y31	Z31	X32	Y32	Z32	X33	Y33	Z33	X34	Y34	Z34	X35	Y35	Z35	X36	Y36	Z36

3025	12.09600	0.00000	0.00000	0.00000	-3906.34863	958.60620	332.11517	0.00000	0.00000	0.00000	0.00000	0.00000	0.00000	-3782.19995	619.25189	367.35333	-3764.40796	560.48853	360.03076	-3689.87061	482.06323	350.55603	-3694.53955	475.78812	240.20259	-3549.07300	358.65887	356.76468	0.00000	0.00000	0.00000	0.00000	0.00000	0.00000	-3571.37500	288.58365	353.87268	-3475.99121	149.72289	322.26205	-3496.07617	154.71448	243.63226	-3391.46167	127.27234	291.29620	0.00000	0.00000	0.00000	1869.53735	2034.53125	345.97733	0.00000	0.00000	0.00000	-3736.87036	1004.26495	172.95744	-3915.72656	967.17224	130.68074	0.00000	0.00000	0.00000	0.00000	0.00000	0.00000	-3920.98389	587.33521	94.10770	-3945.95117	531.48059	102.65550	-3980.76172	479.71759	123.60528	-3957.71777	487.50424	234.83455	0.00000	0.00000	0.00000	-4086.77393	1067.37061	139.91821	0.00000	0.00000	0.00000	0.00000	0.00000	0.00000	0.00000	0.00000	0.00000	-3598.00562	327.71265	359.09213	0.00000	0.00000	0.00000	0.00000	0.00000	0.00000	0.00000	0.00000	0.00000	-3581.17993	356.89267	393.74634
3026	12.10000	0.00000	0.00000	0.00000	-3911.05176	958.15210	331.58942	0.00000	0.00000	0.00000	0.00000	0.00000	0.00000	-3788.51343	619.07825	367.03674	-3770.86206	560.29126	359.84976	-3696.08252	481.76428	350.58734	-3701.19580	475.30350	240.33269	-3553.88892	360.35513	356.65698	0.00000	0.00000	0.00000	0.00000	0.00000	0.00000	-3575.31763	289.79718	353.90784	-3478.33789	151.75519	322.42493	-3499.18286	156.58333	243.90166	-3395.40796	130.55045	292.25568	-3568.40161	53.86376	337.27481	0.00000	0.00000	0.00000	0.00000	0.00000	0.00000	-3740.25049	1001.09833	170.41411	-3921.32251	967.47864	130.31297	0.00000	0.00000	0.00000	0.00000	0.00000	0.00000	-3924.82275	587.32495	93.81496	-3949.37134	531.25287	102.32977	-3984.15723	479.44052	122.87029	-3960.32227	486.94781	234.36440	0.00000	0.00000	0.00000	-4092.23340	1067.60388	139.45413	0.00000	0.00000	0.00000	0.00000	0.00000	0.00000	0.00000	0.00000	0.00000	-3602.41699	328.63812	359.15524	0.00000	0.00000	0.00000	0.00000	0.00000	0.00000	1869.52039	2034.76221	345.95416	0.00000	0.00000	0.00000
3027	12.10400	0.00000	0.00000	0.00000	-3915.87939	957.79071	331.08575	0.00000	0.00000	0.00000	0.00000	0.00000	0.00000	-3794.97363	618.94073	366.71164	-3777.43140	560.09631	359.65469	-3703.17310	482.22479	350.63370	-3707.91455	474.65649	240.45638	-3558.81177	362.03033	356.47699	0.00000	0.00000	0.00000	0.00000	0.00000	0.00000	-3579.39209	291.02847	353.99655	-3480.90186	153.83974	322.48996	-3501.77588	158.10066	244.12149	-3398.85986	134.23259	292.31314	-3568.79272	53.86674	337.42484	0.00000	0.00000	0.00000	0.00000	0.00000	0.00000	0.00000	0.00000	0.00000	0.00000	0.00000	0.00000	0.00000	0.00000	0.00000	0.00000	0.00000	0.00000	-3928.76099	587.44971	93.38407	-3953.03149	531.28540	101.79295	-3987.76904	479.17264	122.25097	-3963.15381	486.57379	233.79076	0.00000	0.00000	0.00000	-4097.70654	1067.93237	139.02608	0.00000	0.00000	0.00000	0.00000	0.00000	0.00000	0.00000	0.00000	0.00000	-3606.86426	329.53030	359.17368	0.00000	0.00000	0.00000	0.00000	0.00000	0.00000	1869.80762	2035.08496	345.87582	0.00000	0.00000	0.00000
3028	12.10800	0.00000	0.00000	0.00000	-3920.59668	957.40509	330.54996	0.00000	0.00000	0.00000	0.00000	0.00000	0.00000	-3801.56201	618.82867	366.43372	-3784.06226	559.88605	359.49438	-3709.09375	481.22369	350.87198	-3714.96558	474.13766	240.70865	-3563.79395	363.66254	356.27615	0.00000	0.00000	0.00000	0.00000	0.00000	0.00000	-3583.53735	292.30679	354.03568	-3483.63965	156.00870	322.63931	-3504.96289	159.93553	244.37901	-3398.46997	137.94595	290.60956	-3568.89502	54.20539	336.90860	0.00000	0.00000	0.00000	0.00000	0.00000	0.00000	-3754.16455	1005.64215	171.61336	0.00000	0.00000	0.00000	0.00000	0.00000	0.00000	0.00000	0.00000	0.00000	-3932.83765	587.71246	92.78357	-3956.77856	531.40497	101.17268	-3991.51685	478.99344	121.72816	-3966.17261	486.28745	233.19893	0.00000	0.00000	0.00000	-4103.13574	1068.23401	138.64938	0.00000	0.00000	0.00000	0.00000	0.00000	0.00000	0.00000	0.00000	0.00000	-3611.53418	330.55197	359.25342	0.00000	0.00000	0.00000	0.00000	0.00000	0.00000	1869.59668	2034.99683	345.74866	0.00000	0.00000	0.00000
3029	12.11200	0.00000	0.00000	0.00000	-3925.33569	957.07025	330.03076	0.00000	0.00000	0.00000	0.00000	0.00000	0.00000	-3808.15527	618.60626	366.12668	-3790.95093	559.72870	359.40100	-3716.44727	481.59995	350.99210	-3722.18896	473.56256	240.93132	-3569.10547	365.41507	356.07581	0.00000	0.00000	0.00000	0.00000	0.00000	0.00000	-3588.00757	293.72546	354.16492	-3486.54810	158.19040	322.75394	-3508.41406	161.76489	244.66997	-3401.77979	141.70197	290.33725	-3569.44824	54.19587	337.13089	0.00000	0.00000	0.00000	0.00000	0.00000	0.00000	-3759.97339	1006.31177	171.06282	0.00000	0.00000	0.00000	0.00000	0.00000	0.00000	0.00000	0.00000	0.00000	-3937.03491	588.11945	92.02912	-3960.70215	531.70490	100.43456	-3995.47168	478.94681	121.39182	-3969.50708	486.23907	232.58371	0.00000	0.00000	0.00000	-4108.50977	1068.64001	138.29280	0.00000	0.00000	0.00000	0.00000	0.00000	0.00000	0.00000	0.00000	0.00000	-3616.29395	331.55667	359.35330	0.00000	0.00000	0.00000	0.00000	0.00000	0.00000	1870.24158	2035.52478	345.64917	0.00000	0.00000	0.00000
3030	12.11600	0.00000	0.00000	0.00000	-3930.29492	956.90753	329.49847	0.00000	0.00000	0.00000	0.00000	0.00000	0.00000	-3814.89551	618.43781	365.87555	-3797.87134	559.50452	359.28281	-3723.23438	481.26550	351.13773	-3729.67212	472.99490	241.24023	-3574.58862	367.26367	355.89255	0.00000	0.00000	0.00000	0.00000	0.00000	0.00000	-3592.56250	295.17383	354.25928	-3489.70410	160.40552	322.84210	-3511.98267	163.64590	245.01170	-3405.79858	145.91801	290.25351	0.00000	0.00000	0.00000	-4031.85352	262.91150	112.07700	0.00000	0.00000	0.00000	0.00000	0.00000	0.00000	-3925.25342	961.28503	112.83711	0.00000	0.00000	0.00000	0.00000	0.00000	0.00000	-3941.24341	588.60419	91.19527	-3964.82568	532.20056	99.60074	-3999.43262	478.95822	121.03669	-3972.95850	486.30862	231.89819	0.00000	0.00000	0.00000	-4113.84424	1069.04675	137.98485	0.00000	0.00000	0.00000	0.00000	0.00000	0.00000	0.00000	0.00000	0.00000	-3621.16089	332.57153	359.45490	0.00000	0.00000	0.00000	0.00000	0.00000	0.00000	1869.46082	2035.07275	345.45786	0.00000	0.00000	0.00000
3031	12.12000	0.00000	0.00000	0.00000	-3935.50342	956.92749	328.92722	0.00000	0.00000	0.00000	0.00000	0.00000	0.00000	-3821.85791	618.34766	365.68774	-3804.97168	559.34692	359.27164	-3729.66895	480.34872	351.46503	-3737.23511	472.22748	241.59099	-3580.14600	369.00449	355.65811	0.00000	0.00000	0.00000	0.00000	0.00000	0.00000	-3597.30420	296.69348	354.41003	-3492.97217	162.68423	322.97104	-3515.84863	165.55244	245.33221	-3408.77686	149.73293	289.30936	0.00000	0.00000	0.00000	-4034.18726	262.63745	111.66973	0.00000	0.00000	0.00000	-3771.24072	1007.85217	170.37386	-3930.74023	962.01935	112.52022	0.00000	0.00000	0.00000	0.00000	0.00000	0.00000	-3945.58545	589.17853	90.32596	-3968.98877	532.76996	98.70268	-4003.32227	478.98547	120.57614	-3976.49683	486.56934	231.23824	0.00000	0.00000	0.00000	-4119.11914	1069.51001	137.70062	0.00000	0.00000	0.00000	0.00000	0.00000	0.00000	0.00000	0.00000	0.00000	-3626.23633	333.68951	359.58612	0.00000	0.00000	0.00000	0.00000	0.00000	0.00000	1869.95044	2035.54919	345.22742	0.00000	0.00000	0.00000
3032	12.12400	0.00000	0.00000	0.00000	-3940.99072	957.17291	328.37946	0.00000	0.00000	0.00000	0.00000	0.00000	0.00000	-3828.81201	618.22412	365.46646	-3812.17358	559.12274	359.24463	-3736.96680	480.01825	351.87186	-3745.02759	471.42355	242.00882	0.00000	0.00000	0.00000	0.00000	0.00000	0.00000	0.00000	0.00000	0.00000	-3602.21753	298.22650	354.51779	-3496.48145	165.04761	323.06223	-3519.85864	167.39418	245.64716	-3412.27441	154.14069	288.85846	0.00000	0.00000	0.00000	-4036.51733	262.41269	111.19012	0.00000	0.00000	0.00000	0.00000	0.00000	0.00000	0.00000	0.00000	0.00000	0.00000	0.00000	0.00000	0.00000	0.00000	0.00000	-3950.02075	589.90533	89.33627	-3973.26440	533.43457	97.80515	-4007.22021	479.22131	120.09787	-3980.13354	487.05371	230.62534	0.00000	0.00000	0.00000	-4124.34473	1069.93945	137.38466	0.00000	0.00000	0.00000	0.00000	0.00000	0.00000	0.00000	0.00000	0.00000	-3631.48877	334.80322	359.71552	0.00000	0.00000	0.00000	0.00000	0.00000	0.00000	1869.43787	2035.08472	344.89914	0.00000	0.00000	0.00000
3033	12.12800	0.00000	0.00000	0.00000	-3946.50000	957.44598	327.79974	0.00000	0.00000	0.00000	0.00000	0.00000	0.00000	-3835.96631	618.10901	365.34909	-3819.56641	558.95862	359.33868	-3745.48999	480.80771	352.40088	-3753.09204	470.51660	242.45413	0.00000	0.00000	0.00000	0.00000	0.00000	0.00000	0.00000	0.00000	0.00000	-3607.29639	299.79239	354.66006	-3500.18945	167.37564	323.22549	-3523.99731	169.19656	246.07275	-3416.87915	158.58514	288.87958	0.00000	0.00000	0.00000	-4038.98218	262.40430	110.62542	0.00000	0.00000	0.00000	0.00000	0.00000	0.00000	-3941.67285	963.63019	111.74817	0.00000	0.00000	0.00000	0.00000	0.00000	0.00000	-3954.48193	590.67072	88.40733	-3977.53296	534.15265	96.86134	-4011.09204	479.59967	119.59161	-3983.69263	487.60477	230.07555	0.00000	0.00000	0.00000	-4129.53711	1070.40393	137.07164	0.00000	0.00000	0.00000	0.00000	0.00000	0.00000	0.00000	0.00000	0.00000	-3636.95825	336.01431	359.88788	0.00000	0.00000	0.00000	0.00000	0.00000	0.00000	1869.95569	2035.77307	344.67435	0.00000	0.00000	0.00000
3034	12.13200	0.00000	0.00000	0.00000	-3951.97168	957.72717	327.21143	0.00000	0.00000	0.00000	0.00000	0.00000	0.00000	-3843.09937	617.92041	365.20496	-3827.01392	558.72876	359.44672	-3751.63013	479.49744	352.62183	-3761.33716	469.54709	242.85039	0.00000	0.00000	0.00000	0.00000	0.00000	0.00000	0.00000	0.00000	0.00000	-3612.45288	301.35120	354.86771	-3504.23730	169.88298	323.58902	-3528.46631	171.10971	246.45825	-3422.16064	163.62509	289.76007	0.00000	0.00000	0.00000	-4041.39868	262.47134	109.99410	0.00000	0.00000	0.00000	-3513.68188	378.54617	136.20370	0.00000	0.00000	0.00000	0.00000	0.00000	0.00000	0.00000	0.00000	0.00000	-3958.87231	591.41547	87.43784	-3981.80591	534.91138	95.92753	-4014.73242	480.04462	119.04386	-3987.28491	488.31161	229.61844	0.00000	0.00000	0.00000	-4134.74121	1070.91711	136.69797	0.00000	0.00000	0.00000	0.00000	0.00000	0.00000	0.00000	0.00000	0.00000	-3642.39771	337.14420	360.10291	0.00000	0.00000	0.00000	0.00000	0.00000	0.00000	1870.80518	2036.73962	344.34259	0.00000	0.00000	0.00000
